<?xml version="1.0" encoding="utf-8"?>
<!-- Generator: Adobe Illustrator 16.0.0, SVG Export Plug-In . SVG Version: 6.00 Build 0)  -->
<!DOCTYPE svg PUBLIC "-//W3C//DTD SVG 1.1//EN" "http://www.w3.org/Graphics/SVG/1.1/DTD/svg11.dtd">
<svg version="1.1" id="Layer_1" xmlns="http://www.w3.org/2000/svg" xmlns:xlink="http://www.w3.org/1999/xlink" x="0px" y="0px"
	 width="584.577px" height="100px" viewBox="0 0 584.577 100" enable-background="new 0 0 584.577 100" xml:space="preserve">
<g>
	<polygon fill="#69BD45" points="11.252,100 0,100 0,0.625 11.252,9 	"/>
	<polygon fill="#69BD45" points="37.374,39.068 45.33,33.233 0,0 0,11.201 	"/>
	<polygon fill="#69BD45" points="37.374,27.5 45.33,33.335 0,66.568 0,55.367 	"/>
</g>
<g>
	
		<rect x="65.99" y="26.719" transform="matrix(0.7071 -0.7071 0.7071 0.7071 -14.6975 64.525)" fill="#69BD45" width="9.1" height="46.571"/>
	<polygon fill="#69BD45" points="90.351,63.381 83.551,56.581 50.2,89.929 50.728,101.589 	"/>
	<polygon fill="#69BD45" points="86.979,13.976 85.928,1.289 50.728,36.626 57.528,43.426 	"/>
</g>
<g>
	<rect x="99.292" y="44.792" fill="#69BD45" width="40.679" height="11.193"/>
	<polygon fill="#69BD45" points="139.971,15.128 139.766,0.138 93.721,50.389 101.582,56.848 	"/>
	<polygon fill="#69BD45" points="139.971,85.497 139.766,100.487 93.721,50.236 101.582,43.776 	"/>
</g>
<g>
	<polygon fill="#69BD45" points="173.872,76.294 164.872,76.294 164.872,9.25 173.872,0.273 	"/>
	
		<rect x="175.321" y="68.214" transform="matrix(0.7071 -0.7071 0.7071 0.7071 -7.3326 152.0057)" fill="#69BD45" width="9" height="33.281"/>
	<polygon fill="#69BD45" points="202.667,76.217 211.667,76.217 211.667,9.25 202.667,0.196 	"/>
	
		<rect x="192.218" y="68.136" transform="matrix(-0.7071 -0.7071 0.7071 -0.7071 275.8728 283.824)" fill="#69BD45" width="9" height="33.281"/>
</g>
<g>
	<polygon fill="#69BD45" points="321.015,24.51 320.155,1.234 296.913,51.079 308.043,52.202 	"/>
	<polygon fill="#69BD45" points="320.215,26.414 320.155,1.234 343.397,51.079 332.643,52.98 	"/>
	<polygon fill="#69BD45" points="320.215,75.743 320.155,100.923 343.397,51.079 331.704,51.104 	"/>
	<polygon fill="#69BD45" points="321.015,77.38 320.155,100.923 296.913,51.079 308.606,51.104 	"/>
</g>
<g>
	<polygon fill="#69BD45" points="398.108,86.514 397.903,101.504 351.858,51.252 359.719,44.793 	"/>
	<polygon fill="#69BD45" points="398.108,15.643 397.903,0.654 351.858,50.904 359.719,57.363 	"/>
</g>
<g>
	<polygon fill="#69BD45" points="441.735,23.411 440.875,0.137 417.633,49.98 428.763,51.104 	"/>
	<polygon fill="#69BD45" points="440.935,25.315 440.875,0.137 464.116,49.98 453.362,51.882 	"/>
	<polygon fill="#69BD45" points="440.935,74.645 440.875,99.824 464.116,49.98 452.424,50.006 	"/>
	<polygon fill="#69BD45" points="441.735,76.281 440.875,99.824 417.633,49.98 429.325,50.006 	"/>
</g>
<g>
	<polygon fill="#69BD45" points="236.919,14.089 236.919,0.235 283.146,46.6 276.347,53.398 	"/>
	<polygon fill="#69BD45" points="236.919,86.09 236.919,99.764 286.546,50 279.747,43.199 	"/>
	<rect x="236.919" y="13.068" fill="#69BD45" width="9" height="76.02"/>
</g>
<g>
	<polygon fill="#69BD45" points="486.944,14.071 486.944,0.216 533.172,46.581 526.372,53.38 	"/>
	<polygon fill="#69BD45" points="486.944,86.071 486.944,99.745 536.572,49.981 529.771,43.181 	"/>
	<rect x="486.944" y="13.05" fill="#69BD45" width="9" height="76.02"/>
</g>
<g>
	<polygon fill="#69BD45" points="559.536,100.389 551.268,100.389 551.268,1.014 559.536,9.389 	"/>
	<polygon fill="#69BD45" points="578.729,39.457 584.577,33.622 551.268,0.389 551.268,11.589 	"/>
	<polygon fill="#69BD45" points="578.729,27.889 584.577,33.724 551.268,66.957 551.268,55.756 	"/>
	<polygon fill="#69BD45" points="583.327,100.389 584.577,88.224 559.536,47.423 557.327,59.649 	"/>
</g>
</svg>
